<mxfile host="app.diagrams.net" modified="2020-12-16T07:04:15.752Z" agent="5.0 (Windows)" etag="bhCg2oZmnp7-eh_mOLdy" version="14.0.1" type="github">
  <diagram name="Page-1" id="e7e014a7-5840-1c2e-5031-d8a46d1fe8dd">
    <mxGraphModel dx="1422" dy="728" grid="1" gridSize="10" guides="1" tooltips="1" connect="1" arrows="1" fold="1" page="1" pageScale="1" pageWidth="827" pageHeight="1169" background="#ffffff" math="0" shadow="0">
      <root>
        <mxCell id="0" />
        <mxCell id="1" parent="0" />
        <mxCell id="vZob4cfVfo-NCwFpEHIO-41" value="" style="ellipse;fillColor=#000000;strokeColor=none;" parent="1" vertex="1">
          <mxGeometry x="388" y="185" width="50" height="50" as="geometry" />
        </mxCell>
        <mxCell id="vZob4cfVfo-NCwFpEHIO-42" value="&lt;font style=&quot;font-size: 19px&quot;&gt;کلیک کردن بر روی نوار جستجو&lt;/font&gt;" style="shape=rect;html=1;rounded=1;whiteSpace=wrap;align=center;fontSize=21;fontStyle=1" parent="1" vertex="1">
          <mxGeometry x="323" y="311" width="180" height="80" as="geometry" />
        </mxCell>
        <mxCell id="vZob4cfVfo-NCwFpEHIO-43" value="" style="endArrow=open;endFill=1;endSize=12;html=1;fontSize=21;exitX=0.5;exitY=1;exitDx=0;exitDy=0;entryX=0.5;entryY=0;entryDx=0;entryDy=0;" parent="1" source="vZob4cfVfo-NCwFpEHIO-41" target="vZob4cfVfo-NCwFpEHIO-42" edge="1">
          <mxGeometry width="160" relative="1" as="geometry">
            <mxPoint x="438" y="469" as="sourcePoint" />
            <mxPoint x="598" y="469" as="targetPoint" />
          </mxGeometry>
        </mxCell>
        <mxCell id="vZob4cfVfo-NCwFpEHIO-45" value="" style="endArrow=open;endFill=1;endSize=12;html=1;fontSize=21;exitX=0.5;exitY=1;exitDx=0;exitDy=0;entryX=0.5;entryY=0;entryDx=0;entryDy=0;" parent="1" source="vZob4cfVfo-NCwFpEHIO-42" target="vZob4cfVfo-NCwFpEHIO-74" edge="1">
          <mxGeometry width="160" relative="1" as="geometry">
            <mxPoint x="413" y="549" as="sourcePoint" />
            <mxPoint x="413" y="451" as="targetPoint" />
          </mxGeometry>
        </mxCell>
        <mxCell id="vZob4cfVfo-NCwFpEHIO-66" value="" style="endArrow=classic;html=1;entryX=0.5;entryY=0;entryDx=0;entryDy=0;exitX=0.5;exitY=1;exitDx=0;exitDy=0;" parent="1" source="vZob4cfVfo-NCwFpEHIO-80" target="vZob4cfVfo-NCwFpEHIO-67" edge="1">
          <mxGeometry width="50" height="50" relative="1" as="geometry">
            <mxPoint x="413.5" y="1169" as="sourcePoint" />
            <mxPoint x="413.5" y="1231" as="targetPoint" />
          </mxGeometry>
        </mxCell>
        <mxCell id="vZob4cfVfo-NCwFpEHIO-67" value="" style="ellipse;html=1;shape=endState;fillColor=#000000;strokeColor=#000000;" parent="1" vertex="1">
          <mxGeometry x="388.5" y="935" width="50" height="50" as="geometry" />
        </mxCell>
        <mxCell id="vZob4cfVfo-NCwFpEHIO-74" value="&lt;span style=&quot;font-size: 19px&quot;&gt;وارد کردن نام رستوران&lt;/span&gt;" style="shape=rect;html=1;rounded=1;whiteSpace=wrap;align=center;fontSize=21;fontStyle=1" parent="1" vertex="1">
          <mxGeometry x="323" y="455" width="180" height="80" as="geometry" />
        </mxCell>
        <mxCell id="vZob4cfVfo-NCwFpEHIO-75" value="" style="endArrow=open;endFill=1;endSize=12;html=1;fontSize=21;exitX=0.5;exitY=1;exitDx=0;exitDy=0;entryX=0.5;entryY=0;entryDx=0;entryDy=0;" parent="1" source="vZob4cfVfo-NCwFpEHIO-74" target="vZob4cfVfo-NCwFpEHIO-76" edge="1">
          <mxGeometry width="160" relative="1" as="geometry">
            <mxPoint x="423" y="559" as="sourcePoint" />
            <mxPoint x="423" y="461" as="targetPoint" />
          </mxGeometry>
        </mxCell>
        <mxCell id="vZob4cfVfo-NCwFpEHIO-76" value="&lt;font style=&quot;font-size: 19px&quot;&gt;کلیک کردن بر روی علامت جستجو&lt;/font&gt;" style="shape=rect;html=1;rounded=1;whiteSpace=wrap;align=center;fontSize=21;fontStyle=1" parent="1" vertex="1">
          <mxGeometry x="323.5" y="615" width="180" height="80" as="geometry" />
        </mxCell>
        <mxCell id="vZob4cfVfo-NCwFpEHIO-77" value="" style="endArrow=open;endFill=1;endSize=12;html=1;fontSize=21;exitX=0.5;exitY=1;exitDx=0;exitDy=0;entryX=0.5;entryY=0;entryDx=0;entryDy=0;" parent="1" source="vZob4cfVfo-NCwFpEHIO-76" target="vZob4cfVfo-NCwFpEHIO-80" edge="1">
          <mxGeometry width="160" relative="1" as="geometry">
            <mxPoint x="433" y="569" as="sourcePoint" />
            <mxPoint x="433" y="471" as="targetPoint" />
          </mxGeometry>
        </mxCell>
        <mxCell id="vZob4cfVfo-NCwFpEHIO-80" value="&lt;font style=&quot;font-size: 19px&quot;&gt;نمایش نتایج یافت شده&lt;/font&gt;" style="shape=rect;html=1;rounded=1;whiteSpace=wrap;align=center;fontSize=21;fontStyle=1" parent="1" vertex="1">
          <mxGeometry x="323" y="775" width="180" height="80" as="geometry" />
        </mxCell>
        <mxCell id="3FY0h52enP7wuCcc17T0-1" value="&lt;b&gt;&lt;font style=&quot;font-size: 47px&quot;&gt;جستجو&lt;/font&gt;&lt;/b&gt;" style="text;html=1;strokeColor=none;fillColor=none;align=center;verticalAlign=middle;whiteSpace=wrap;rounded=0;" vertex="1" parent="1">
          <mxGeometry x="20" y="20" width="270" height="100" as="geometry" />
        </mxCell>
      </root>
    </mxGraphModel>
  </diagram>
</mxfile>
